<svg xmlns="http://www.w3.org/2000/svg" width="1920" height="7815"><path fill-rule="evenodd" clip-rule="evenodd" fill="#0C0920" d="M1921.5 4300.467v473.405c-162.579 230.655-544.128 340.282-697.136 218.199-182.555-145.657-119.362-665.173 214.056-803.127 193.589-80.098 381.615-20.284 483.08 111.523zM487.071 3490.763c-34.127 178.568 237.009 531.04 462.094 508.468 223.201-22.384 282.977-320.481 102.789-537.577-188.582-227.211-530.756-149.46-564.883 29.109zM1609.5 1662c-344-76-348 132-620 384s-424-156-616-188c-136.265-22.711-292.673 89.565-372 156.665v777.347c69.248-283.395 198.511-706.969 364-770.013 252-96 15.559 416.727 332 520 341.981 111.609 695.871-826.354 932-408 102.155 180.99 211.193 272.222 292 318.083v-995.825c-68.221 132.787-168.546 237.436-312 205.743zm-590.25-58.5c133.515 0 322.823-347.536 235.75-448.75-87-101.129-435.5-101.129-474.5 63-30.866 129.897 105.235 385.75 238.75 385.75zm902.25 4268.488c-83.886-58.922-197.627-118.051-300-100.989-192 32-344 440.001-616 188.001-272-252.001-276-460.001-620-384-206.185 45.553-323.273-190.545-384-387.031v1210.162c76.894-26.717 226.668-107.817 364-351.132 236.128-418.353 590.018 519.608 932 408.001 316.44-103.273 80-616.001 332-520.001 119.021 45.342 219.305 277.175 292 509.222v-572.233zM1.5 1112.393c110.247 7.67 273.673-75.216 302.154-202.144 35.419-157.852-112.772-278.476-268.309-214.122A209.984 209.984 0 001.5 713.917v398.476zm1873.611 1763.613c-156.527 91.109-285.736 365.587-154.168 525.217 37.736 45.785 115.518 56.674 200.557 37.19v-585.092c-15.391 6.138-30.887 13.662-46.389 22.685zM793.155 6829.633c-234.6-204.436-583.626-210.758-791.655-84.437v615.795c154.791 145.936 396.095 253.955 655.202 221.097 294.642-37.364 450.389-478.887 136.453-752.455z"/></svg>