<svg xmlns="http://www.w3.org/2000/svg" width="293.651" height="25.381"><linearGradient id="a" gradientUnits="userSpaceOnUse" x1="1.674" y1="12.69" x2="291.978" y2="12.69"><stop offset="0" stop-color="#6d02e5"/><stop offset="1" stop-color="#ff0042"/></linearGradient><path fill="url(#a)" d="M1.674 21.828l1.788-3.967c1.919 1.398 4.78 2.374 7.512 2.374 3.121 0 4.39-1.041 4.39-2.439 0-4.259-13.234-1.333-13.234-9.787C2.13 4.139 5.252.92 11.723.92c2.861 0 5.788.683 7.901 2.016l-1.626 4c-2.113-1.203-4.292-1.789-6.308-1.789-3.122 0-4.325 1.171-4.325 2.602 0 4.195 13.234 1.301 13.234 9.657 0 3.805-3.154 7.056-9.657 7.056-3.609-.001-7.252-1.073-9.268-2.634zm39.478-5.821v8.064h-5.268v-8.129L27.073 1.31h5.593l6.08 10.113L44.827 1.31h5.17l-8.845 14.697zM79.2 24.071l-.033-13.657-6.698 11.25h-2.374L63.43 10.706V24.07h-4.943V1.31h4.357l8.52 14.145 8.39-14.145h4.324l.065 22.762H79.2zm36.585-14.502c0 5.073-3.805 8.227-9.886 8.227h-4.585v6.276h-5.268V1.31h9.853c6.081 0 9.886 3.154 9.886 8.259zm-5.333 0c0-2.504-1.626-3.967-4.845-3.967h-4.293v7.901h4.293c3.219 0 4.845-1.463 4.845-3.934zm36.454-8.259v22.762h-5.268V14.74h-10.341v9.332h-5.268V1.31h5.268v8.975h10.341V1.31h5.268zm10.473 11.38c0-6.763 5.268-11.771 12.454-11.771 7.153 0 12.453 4.975 12.453 11.771s-5.3 11.771-12.453 11.771c-7.186 0-12.454-5.007-12.454-11.771zm19.576 0c0-4.325-3.057-7.284-7.121-7.284-4.065 0-7.121 2.959-7.121 7.284s3.056 7.284 7.121 7.284c4.064 0 7.121-2.959 7.121-7.284zm36.681-11.38v22.762h-4.324l-11.348-13.819v13.819h-5.203V1.31h4.357l11.317 13.82V1.31h5.201zm11.906 0h5.268v22.762h-5.268V1.31zm16.975 12.746V1.31h5.268v12.552c0 4.325 1.885 6.113 5.072 6.113 3.219 0 5.072-1.788 5.072-6.113V1.31h5.203v12.747c0 6.698-3.838 10.405-10.309 10.405s-10.306-3.708-10.306-10.406zm30.535 7.772l1.789-3.967c1.918 1.398 4.779 2.374 7.512 2.374 3.121 0 4.389-1.041 4.389-2.439 0-4.259-13.234-1.333-13.234-9.787 0-3.87 3.123-7.089 9.594-7.089 2.861 0 5.787.683 7.9 2.016l-1.625 4c-2.113-1.203-4.293-1.789-6.309-1.789-3.121 0-4.324 1.171-4.324 2.602 0 4.195 13.234 1.301 13.234 9.657 0 3.805-3.154 7.056-9.658 7.056-3.61-.001-7.251-1.073-9.268-2.634z"/></svg>