<svg xmlns="http://www.w3.org/2000/svg" width="43.002" height="25.381"><linearGradient id="a" gradientUnits="userSpaceOnUse" x1="-100.666" y1="-7.27" x2="-61.362" y2="-7.27" gradientTransform="matrix(1 0 0 -1 102.34 5.42)"><stop offset="0" stop-color="#6d02e5"/><stop offset="1" stop-color="#ff0042"/></linearGradient><path fill="url(#a)" d="M1.674 21.828l1.788-3.968c1.919 1.398 4.78 2.375 7.512 2.375 3.121 0 4.39-1.041 4.39-2.439 0-4.259-13.233-1.333-13.233-9.787 0-3.87 3.122-7.089 9.593-7.089 2.861 0 5.788.683 7.901 2.016l-1.626 4c-2.113-1.203-4.292-1.789-6.309-1.789-3.122 0-4.324 1.171-4.324 2.602 0 4.195 13.233 1.301 13.233 9.657 0 3.805-3.154 7.056-9.657 7.056-3.609-.001-7.252-1.072-9.268-2.634zm20.378 0l1.789-3.968c1.918 1.398 4.779 2.375 7.512 2.375 3.121 0 4.39-1.041 4.39-2.439 0-4.259-13.234-1.333-13.234-9.787 0-3.87 3.123-7.089 9.594-7.089 2.861 0 5.787.683 7.9 2.016l-1.625 4c-2.113-1.203-4.293-1.789-6.31-1.789-3.121 0-4.323 1.171-4.323 2.602 0 4.195 13.233 1.301 13.233 9.657 0 3.805-3.153 7.056-9.658 7.056-3.61-.001-7.251-1.072-9.268-2.634z"/></svg>