<svg version="1.0" xmlns="http://www.w3.org/2000/svg" width="693.333" height="693.333" viewBox="0 0 520 520"><path d="M101.2 260v209.8l6.1-3.6c3.4-1.9 8-4.5 10.2-5.7 2.2-1.3 38.4-22.2 80.5-46.5 95.5-55.2 122.3-70.7 131.4-75.9 19.4-11.2 89.7-51.8 92.1-53.2 1.7-1.1 3.7-2.2 4.5-2.6.8-.4 7.4-4.2 14.8-8.5 7.3-4.3 13.7-7.8 14.2-7.8.6 0 1-.5 1-1 0-.6.6-1 1.4-1 .8 0 2.8-1.1 4.3-2.4 2.7-2.3 2.7-2.5.8-3.2-1.1-.4-4.7-2.4-8-4.4-3.3-2-6.7-4-7.5-4.4-.8-.4-2.4-1.2-3.5-1.9-1.9-1.1-21-12.2-28.5-16.5-1.9-1.1-15-8.6-29-16.7-39.9-23-103.1-59.5-107.5-62-2.2-1.3-17.7-10.2-34.3-19.9-16.7-9.7-30.5-17.6-30.7-17.6-.2 0-5.6-3.2-12.1-7-6.4-3.9-11.8-7-11.9-7-.2 0-3.6-1.9-7.7-4.3-4-2.4-9.3-5.5-11.8-6.9-2.5-1.4-17-9.8-32.4-18.7C122.3 62.3 109.4 55 109 55c-.5 0-1-.3-1.2-.8-.1-.4-1.7-1.4-3.5-2.3l-3.1-1.7V260zm88-75.1c8.7 5.1 90.8 52.4 115.6 66.7l14.4 8.2-11.9 7c-6.5 3.8-14 8.2-16.8 9.7-2.7 1.6-8.1 4.7-12 7-5.8 3.5-39.9 23.2-51.2 29.6-13.2 7.5-42 24.3-43.7 25.5-1.1.8-2.5 1.4-3.1 1.4-.8 0-1.1-22.9-1.1-80 0-44 .3-80 .8-80 .4 0 4.5 2.2 9 4.9z"/></svg>